<svg width="623" height="699" viewBox="0 0 623 699" fill="none" xmlns="http://www.w3.org/2000/svg">
<mask id="mask0_1544_569" style="mask-type:alpha" maskUnits="userSpaceOnUse" x="0" y="0" width="623" height="699">
<rect width="622.045" height="698.364" transform="matrix(-1 0 0 1 622.089 0.635986)" fill="url(#paint0_linear_1544_569)"/>
</mask>
<g mask="url(#mask0_1544_569)">
<line y1="-1" x2="1093.55" y2="-1" transform="matrix(0 -1 -1 0 -1.0332 1093.66)" stroke="#C247D6" stroke-width="2"/>
<path d="M74.7285 1093.66L74.7285 0.113398" stroke="#C247D6" stroke-width="2"/>
<path d="M152.694 1093.66L152.694 0.113398" stroke="#C247D6" stroke-width="2"/>
<path d="M230.658 1093.66L230.658 0.113398" stroke="#C247D6" stroke-width="2"/>
<path d="M308.627 1093.66L308.627 0.113398" stroke="#C247D6" stroke-width="2"/>
<path d="M386.593 1093.66L386.593 0.113398" stroke="#C247D6" stroke-width="2"/>
<path d="M464.557 1093.66L464.557 0.113398" stroke="#C247D6" stroke-width="2"/>
<path d="M542.522 1093.66L542.522 0.113398" stroke="#C247D6" stroke-width="2"/>
<path d="M620.488 1093.66L620.488 0.113398" stroke="#C247D6" stroke-width="2"/>
<path d="M-1.21191 74.7874L1092.33 74.7874" stroke="#C247D6" stroke-width="2"/>
<path d="M-1.21191 152.753L1092.33 152.753" stroke="#C247D6" stroke-width="2"/>
<path d="M-1.21191 230.719L1092.33 230.719" stroke="#C247D6" stroke-width="2"/>
<path d="M-1.21191 308.685L1092.33 308.685" stroke="#C247D6" stroke-width="2"/>
<path d="M-1.21191 386.649L1092.33 386.649" stroke="#C247D6" stroke-width="2"/>
<path d="M-1.21191 464.615L1092.33 464.615" stroke="#C247D6" stroke-width="2"/>
<path d="M-1.21191 542.581L1092.33 542.581" stroke="#C247D6" stroke-width="2"/>
<path d="M-1.21191 620.547L1092.33 620.547" stroke="#C247D6" stroke-width="2"/>
<path d="M-1.21191 698.513L1092.33 698.513" stroke="#C247D6" stroke-width="2"/>
</g>
<defs>
<linearGradient id="paint0_linear_1544_569" x1="694.704" y1="284.225" x2="-280.67" y2="276.767" gradientUnits="userSpaceOnUse">
<stop stop-color="#C4C4C4"/>
<stop offset="0.770721" stop-color="#C4C4C4" stop-opacity="0"/>
</linearGradient>
</defs>
</svg>
